<svg xmlns="http://www.w3.org/2000/svg" viewBox="0 0 200 200">
  <defs>
    <!-- Vortice centrale -->
    <radialGradient id="vortexCore" cx="50%" cy="50%" r="50%">
      <stop offset="0%" stop-color="#FFFFFF" stop-opacity="1"/>
      <stop offset="12%" stop-color="#E0F7FA" stop-opacity="0.98"/>
      <stop offset="30%" stop-color="#80DEEA" stop-opacity="0.8"/>
      <stop offset="50%" stop-color="#29B6F6" stop-opacity="0.5"/>
      <stop offset="70%" stop-color="#5E35B1" stop-opacity="0.25"/>
      <stop offset="90%" stop-color="#1A237E" stop-opacity="0.08"/>
      <stop offset="100%" stop-color="#000000" stop-opacity="0"/>
    </radialGradient>

    <!-- Gradiente per spirali -->
    <linearGradient id="spiralGradient" x1="0%" y1="0%" x2="100%" y2="100%">
      <stop offset="0%" stop-color="#E0F7FA"/>
      <stop offset="50%" stop-color="#29B6F6"/>
      <stop offset="100%" stop-color="#5E35B1"/>
    </linearGradient>
  </defs>

  <!-- 60 SPIRALI RADIALI COMPLETE (come i minuti di un orologio) -->
  <g stroke="url(#spiralGradient)" stroke-width="0.6" fill="none" opacity="0.65" stroke-linecap="round">
    <!-- Spirale base ingrandita che esce dal portale -->
    <path d="M100 100 Q125 100 135 88 Q145 76 148 60 Q151 44 145 32 Q139 20 125 15">
      <animateTransform attributeName="transform" type="rotate" from="0 100 100" to="360 100 100" dur="60s" repeatCount="indefinite"/>
    </path>
    <path d="M100 100 Q125 100 135 88 Q145 76 148 60 Q151 44 145 32 Q139 20 125 15" transform="rotate(6 100 100)">
      <animateTransform attributeName="transform" type="rotate" from="6 100 100" to="366 100 100" dur="60s" repeatCount="indefinite"/>
    </path>
    <path d="M100 100 Q125 100 135 88 Q145 76 148 60 Q151 44 145 32 Q139 20 125 15" transform="rotate(12 100 100)">
      <animateTransform attributeName="transform" type="rotate" from="12 100 100" to="372 100 100" dur="60s" repeatCount="indefinite"/>
    </path>
    <path d="M100 100 Q125 100 135 88 Q145 76 148 60 Q151 44 145 32 Q139 20 125 15" transform="rotate(18 100 100)">
      <animateTransform attributeName="transform" type="rotate" from="18 100 100" to="378 100 100" dur="60s" repeatCount="indefinite"/>
    </path>
    <path d="M100 100 Q125 100 135 88 Q145 76 148 60 Q151 44 145 32 Q139 20 125 15" transform="rotate(24 100 100)">
      <animateTransform attributeName="transform" type="rotate" from="24 100 100" to="384 100 100" dur="60s" repeatCount="indefinite"/>
    </path>
    <path d="M100 100 Q125 100 135 88 Q145 76 148 60 Q151 44 145 32 Q139 20 125 15" transform="rotate(30 100 100)">
      <animateTransform attributeName="transform" type="rotate" from="30 100 100" to="390 100 100" dur="60s" repeatCount="indefinite"/>
    </path>
    <path d="M100 100 Q125 100 135 88 Q145 76 148 60 Q151 44 145 32 Q139 20 125 15" transform="rotate(36 100 100)">
      <animateTransform attributeName="transform" type="rotate" from="36 100 100" to="396 100 100" dur="60s" repeatCount="indefinite"/>
    </path>
    <path d="M100 100 Q125 100 135 88 Q145 76 148 60 Q151 44 145 32 Q139 20 125 15" transform="rotate(42 100 100)">
      <animateTransform attributeName="transform" type="rotate" from="42 100 100" to="402 100 100" dur="60s" repeatCount="indefinite"/>
    </path>
    <path d="M100 100 Q125 100 135 88 Q145 76 148 60 Q151 44 145 32 Q139 20 125 15" transform="rotate(48 100 100)">
      <animateTransform attributeName="transform" type="rotate" from="48 100 100" to="408 100 100" dur="60s" repeatCount="indefinite"/>
    </path>
    <path d="M100 100 Q125 100 135 88 Q145 76 148 60 Q151 44 145 32 Q139 20 125 15" transform="rotate(54 100 100)">
      <animateTransform attributeName="transform" type="rotate" from="54 100 100" to="414 100 100" dur="60s" repeatCount="indefinite"/>
    </path>
    <path d="M100 100 Q125 100 135 88 Q145 76 148 60 Q151 44 145 32 Q139 20 125 15" transform="rotate(60 100 100)">
      <animateTransform attributeName="transform" type="rotate" from="60 100 100" to="420 100 100" dur="60s" repeatCount="indefinite"/>
    </path>
    <path d="M100 100 Q125 100 135 88 Q145 76 148 60 Q151 44 145 32 Q139 20 125 15" transform="rotate(66 100 100)">
      <animateTransform attributeName="transform" type="rotate" from="66 100 100" to="426 100 100" dur="60s" repeatCount="indefinite"/>
    </path>
    <path d="M100 100 Q125 100 135 88 Q145 76 148 60 Q151 44 145 32 Q139 20 125 15" transform="rotate(72 100 100)">
      <animateTransform attributeName="transform" type="rotate" from="72 100 100" to="432 100 100" dur="60s" repeatCount="indefinite"/>
    </path>
    <path d="M100 100 Q125 100 135 88 Q145 76 148 60 Q151 44 145 32 Q139 20 125 15" transform="rotate(78 100 100)">
      <animateTransform attributeName="transform" type="rotate" from="78 100 100" to="438 100 100" dur="60s" repeatCount="indefinite"/>
    </path>
    <path d="M100 100 Q125 100 135 88 Q145 76 148 60 Q151 44 145 32 Q139 20 125 15" transform="rotate(84 100 100)">
      <animateTransform attributeName="transform" type="rotate" from="84 100 100" to="444 100 100" dur="60s" repeatCount="indefinite"/>
    </path>
    <path d="M100 100 Q125 100 135 88 Q145 76 148 60 Q151 44 145 32 Q139 20 125 15" transform="rotate(90 100 100)">
      <animateTransform attributeName="transform" type="rotate" from="90 100 100" to="450 100 100" dur="60s" repeatCount="indefinite"/>
    </path>
    <path d="M100 100 Q125 100 135 88 Q145 76 148 60 Q151 44 145 32 Q139 20 125 15" transform="rotate(96 100 100)">
      <animateTransform attributeName="transform" type="rotate" from="96 100 100" to="456 100 100" dur="60s" repeatCount="indefinite"/>
    </path>
    <path d="M100 100 Q125 100 135 88 Q145 76 148 60 Q151 44 145 32 Q139 20 125 15" transform="rotate(102 100 100)">
      <animateTransform attributeName="transform" type="rotate" from="102 100 100" to="462 100 100" dur="60s" repeatCount="indefinite"/>
    </path>
    <path d="M100 100 Q125 100 135 88 Q145 76 148 60 Q151 44 145 32 Q139 20 125 15" transform="rotate(108 100 100)">
      <animateTransform attributeName="transform" type="rotate" from="108 100 100" to="468 100 100" dur="60s" repeatCount="indefinite"/>
    </path>
    <path d="M100 100 Q125 100 135 88 Q145 76 148 60 Q151 44 145 32 Q139 20 125 15" transform="rotate(114 100 100)">
      <animateTransform attributeName="transform" type="rotate" from="114 100 100" to="474 100 100" dur="60s" repeatCount="indefinite"/>
    </path>
    <path d="M100 100 Q125 100 135 88 Q145 76 148 60 Q151 44 145 32 Q139 20 125 15" transform="rotate(120 100 100)">
      <animateTransform attributeName="transform" type="rotate" from="120 100 100" to="480 100 100" dur="60s" repeatCount="indefinite"/>
    </path>
    <path d="M100 100 Q125 100 135 88 Q145 76 148 60 Q151 44 145 32 Q139 20 125 15" transform="rotate(126 100 100)">
      <animateTransform attributeName="transform" type="rotate" from="126 100 100" to="486 100 100" dur="60s" repeatCount="indefinite"/>
    </path>
    <path d="M100 100 Q125 100 135 88 Q145 76 148 60 Q151 44 145 32 Q139 20 125 15" transform="rotate(132 100 100)">
      <animateTransform attributeName="transform" type="rotate" from="132 100 100" to="492 100 100" dur="60s" repeatCount="indefinite"/>
    </path>
    <path d="M100 100 Q125 100 135 88 Q145 76 148 60 Q151 44 145 32 Q139 20 125 15" transform="rotate(138 100 100)">
      <animateTransform attributeName="transform" type="rotate" from="138 100 100" to="498 100 100" dur="60s" repeatCount="indefinite"/>
    </path>
    <path d="M100 100 Q125 100 135 88 Q145 76 148 60 Q151 44 145 32 Q139 20 125 15" transform="rotate(144 100 100)">
      <animateTransform attributeName="transform" type="rotate" from="144 100 100" to="504 100 100" dur="60s" repeatCount="indefinite"/>
    </path>
    <path d="M100 100 Q125 100 135 88 Q145 76 148 60 Q151 44 145 32 Q139 20 125 15" transform="rotate(150 100 100)">
      <animateTransform attributeName="transform" type="rotate" from="150 100 100" to="510 100 100" dur="60s" repeatCount="indefinite"/>
    </path>
    <path d="M100 100 Q125 100 135 88 Q145 76 148 60 Q151 44 145 32 Q139 20 125 15" transform="rotate(156 100 100)">
      <animateTransform attributeName="transform" type="rotate" from="156 100 100" to="516 100 100" dur="60s" repeatCount="indefinite"/>
    </path>
    <path d="M100 100 Q125 100 135 88 Q145 76 148 60 Q151 44 145 32 Q139 20 125 15" transform="rotate(162 100 100)">
      <animateTransform attributeName="transform" type="rotate" from="162 100 100" to="522 100 100" dur="60s" repeatCount="indefinite"/>
    </path>
    <path d="M100 100 Q125 100 135 88 Q145 76 148 60 Q151 44 145 32 Q139 20 125 15" transform="rotate(168 100 100)">
      <animateTransform attributeName="transform" type="rotate" from="168 100 100" to="528 100 100" dur="60s" repeatCount="indefinite"/>
    </path>
    <path d="M100 100 Q125 100 135 88 Q145 76 148 60 Q151 44 145 32 Q139 20 125 15" transform="rotate(174 100 100)">
      <animateTransform attributeName="transform" type="rotate" from="174 100 100" to="534 100 100" dur="60s" repeatCount="indefinite"/>
    </path>
    <path d="M100 100 Q125 100 135 88 Q145 76 148 60 Q151 44 145 32 Q139 20 125 15" transform="rotate(180 100 100)">
      <animateTransform attributeName="transform" type="rotate" from="180 100 100" to="540 100 100" dur="60s" repeatCount="indefinite"/>
    </path>
    <path d="M100 100 Q125 100 135 88 Q145 76 148 60 Q151 44 145 32 Q139 20 125 15" transform="rotate(186 100 100)">
      <animateTransform attributeName="transform" type="rotate" from="186 100 100" to="546 100 100" dur="60s" repeatCount="indefinite"/>
    </path>
    <path d="M100 100 Q125 100 135 88 Q145 76 148 60 Q151 44 145 32 Q139 20 125 15" transform="rotate(192 100 100)">
      <animateTransform attributeName="transform" type="rotate" from="192 100 100" to="552 100 100" dur="60s" repeatCount="indefinite"/>
    </path>
    <path d="M100 100 Q125 100 135 88 Q145 76 148 60 Q151 44 145 32 Q139 20 125 15" transform="rotate(198 100 100)">
      <animateTransform attributeName="transform" type="rotate" from="198 100 100" to="558 100 100" dur="60s" repeatCount="indefinite"/>
    </path>
    <path d="M100 100 Q125 100 135 88 Q145 76 148 60 Q151 44 145 32 Q139 20 125 15" transform="rotate(204 100 100)">
      <animateTransform attributeName="transform" type="rotate" from="204 100 100" to="564 100 100" dur="60s" repeatCount="indefinite"/>
    </path>
    <path d="M100 100 Q125 100 135 88 Q145 76 148 60 Q151 44 145 32 Q139 20 125 15" transform="rotate(210 100 100)">
      <animateTransform attributeName="transform" type="rotate" from="210 100 100" to="570 100 100" dur="60s" repeatCount="indefinite"/>
    </path>
    <path d="M100 100 Q125 100 135 88 Q145 76 148 60 Q151 44 145 32 Q139 20 125 15" transform="rotate(216 100 100)">
      <animateTransform attributeName="transform" type="rotate" from="216 100 100" to="576 100 100" dur="60s" repeatCount="indefinite"/>
    </path>
    <path d="M100 100 Q125 100 135 88 Q145 76 148 60 Q151 44 145 32 Q139 20 125 15" transform="rotate(222 100 100)">
      <animateTransform attributeName="transform" type="rotate" from="222 100 100" to="582 100 100" dur="60s" repeatCount="indefinite"/>
    </path>
    <path d="M100 100 Q125 100 135 88 Q145 76 148 60 Q151 44 145 32 Q139 20 125 15" transform="rotate(228 100 100)">
      <animateTransform attributeName="transform" type="rotate" from="228 100 100" to="588 100 100" dur="60s" repeatCount="indefinite"/>
    </path>
    <path d="M100 100 Q125 100 135 88 Q145 76 148 60 Q151 44 145 32 Q139 20 125 15" transform="rotate(234 100 100)">
      <animateTransform attributeName="transform" type="rotate" from="234 100 100" to="594 100 100" dur="60s" repeatCount="indefinite"/>
    </path>
    <path d="M100 100 Q125 100 135 88 Q145 76 148 60 Q151 44 145 32 Q139 20 125 15" transform="rotate(240 100 100)">
      <animateTransform attributeName="transform" type="rotate" from="240 100 100" to="600 100 100" dur="60s" repeatCount="indefinite"/>
    </path>
    <path d="M100 100 Q125 100 135 88 Q145 76 148 60 Q151 44 145 32 Q139 20 125 15" transform="rotate(246 100 100)">
      <animateTransform attributeName="transform" type="rotate" from="246 100 100" to="606 100 100" dur="60s" repeatCount="indefinite"/>
    </path>
    <path d="M100 100 Q125 100 135 88 Q145 76 148 60 Q151 44 145 32 Q139 20 125 15" transform="rotate(252 100 100)">
      <animateTransform attributeName="transform" type="rotate" from="252 100 100" to="612 100 100" dur="60s" repeatCount="indefinite"/>
    </path>
    <path d="M100 100 Q125 100 135 88 Q145 76 148 60 Q151 44 145 32 Q139 20 125 15" transform="rotate(258 100 100)">
      <animateTransform attributeName="transform" type="rotate" from="258 100 100" to="618 100 100" dur="60s" repeatCount="indefinite"/>
    </path>
    <path d="M100 100 Q125 100 135 88 Q145 76 148 60 Q151 44 145 32 Q139 20 125 15" transform="rotate(264 100 100)">
      <animateTransform attributeName="transform" type="rotate" from="264 100 100" to="624 100 100" dur="60s" repeatCount="indefinite"/>
    </path>
    <path d="M100 100 Q125 100 135 88 Q145 76 148 60 Q151 44 145 32 Q139 20 125 15" transform="rotate(270 100 100)">
      <animateTransform attributeName="transform" type="rotate" from="270 100 100" to="630 100 100" dur="60s" repeatCount="indefinite"/>
    </path>
    <path d="M100 100 Q125 100 135 88 Q145 76 148 60 Q151 44 145 32 Q139 20 125 15" transform="rotate(276 100 100)">
      <animateTransform attributeName="transform" type="rotate" from="276 100 100" to="636 100 100" dur="60s" repeatCount="indefinite"/>
    </path>
    <path d="M100 100 Q125 100 135 88 Q145 76 148 60 Q151 44 145 32 Q139 20 125 15" transform="rotate(282 100 100)">
      <animateTransform attributeName="transform" type="rotate" from="282 100 100" to="642 100 100" dur="60s" repeatCount="indefinite"/>
    </path>
    <path d="M100 100 Q125 100 135 88 Q145 76 148 60 Q151 44 145 32 Q139 20 125 15" transform="rotate(288 100 100)">
      <animateTransform attributeName="transform" type="rotate" from="288 100 100" to="648 100 100" dur="60s" repeatCount="indefinite"/>
    </path>
    <path d="M100 100 Q125 100 135 88 Q145 76 148 60 Q151 44 145 32 Q139 20 125 15" transform="rotate(294 100 100)">
      <animateTransform attributeName="transform" type="rotate" from="294 100 100" to="654 100 100" dur="60s" repeatCount="indefinite"/>
    </path>
    <path d="M100 100 Q125 100 135 88 Q145 76 148 60 Q151 44 145 32 Q139 20 125 15" transform="rotate(300 100 100)">
      <animateTransform attributeName="transform" type="rotate" from="300 100 100" to="660 100 100" dur="60s" repeatCount="indefinite"/>
    </path>
    <path d="M100 100 Q125 100 135 88 Q145 76 148 60 Q151 44 145 32 Q139 20 125 15" transform="rotate(306 100 100)">
      <animateTransform attributeName="transform" type="rotate" from="306 100 100" to="666 100 100" dur="60s" repeatCount="indefinite"/>
    </path>
    <path d="M100 100 Q125 100 135 88 Q145 76 148 60 Q151 44 145 32 Q139 20 125 15" transform="rotate(312 100 100)">
      <animateTransform attributeName="transform" type="rotate" from="312 100 100" to="672 100 100" dur="60s" repeatCount="indefinite"/>
    </path>
    <path d="M100 100 Q125 100 135 88 Q145 76 148 60 Q151 44 145 32 Q139 20 125 15" transform="rotate(318 100 100)">
      <animateTransform attributeName="transform" type="rotate" from="318 100 100" to="678 100 100" dur="60s" repeatCount="indefinite"/>
    </path>
    <path d="M100 100 Q125 100 135 88 Q145 76 148 60 Q151 44 145 32 Q139 20 125 15" transform="rotate(324 100 100)">
      <animateTransform attributeName="transform" type="rotate" from="324 100 100" to="684 100 100" dur="60s" repeatCount="indefinite"/>
    </path>
    <path d="M100 100 Q125 100 135 88 Q145 76 148 60 Q151 44 145 32 Q139 20 125 15" transform="rotate(330 100 100)">
      <animateTransform attributeName="transform" type="rotate" from="330 100 100" to="690 100 100" dur="60s" repeatCount="indefinite"/>
    </path>
    <path d="M100 100 Q125 100 135 88 Q145 76 148 60 Q151 44 145 32 Q139 20 125 15" transform="rotate(336 100 100)">
      <animateTransform attributeName="transform" type="rotate" from="336 100 100" to="696 100 100" dur="60s" repeatCount="indefinite"/>
    </path>
    <path d="M100 100 Q125 100 135 88 Q145 76 148 60 Q151 44 145 32 Q139 20 125 15" transform="rotate(342 100 100)">
      <animateTransform attributeName="transform" type="rotate" from="342 100 100" to="702 100 100" dur="60s" repeatCount="indefinite"/>
    </path>
    <path d="M100 100 Q125 100 135 88 Q145 76 148 60 Q151 44 145 32 Q139 20 125 15" transform="rotate(348 100 100)">
      <animateTransform attributeName="transform" type="rotate" from="348 100 100" to="708 100 100" dur="60s" repeatCount="indefinite"/>
    </path>
    <path d="M100 100 Q125 100 135 88 Q145 76 148 60 Q151 44 145 32 Q139 20 125 15" transform="rotate(354 100 100)">
      <animateTransform attributeName="transform" type="rotate" from="354 100 100" to="714 100 100" dur="60s" repeatCount="indefinite"/>
    </path>
  </g>

  <!-- Vortice centrale -->
  <circle cx="100" cy="100" r="30" fill="url(#vortexCore)"/>
  
  <!-- Nucleo brillante -->
  <circle cx="100" cy="100" r="14" fill="#FFFFFF" opacity="0.9"/>
  <circle cx="100" cy="100" r="8" fill="#E0F7FA" opacity="1"/>
  <circle cx="100" cy="100" r="4" fill="#80DEEA" opacity="1"/>
  <circle cx="100" cy="100" r="1.5" fill="#FFFFFF" opacity="1"/>
</svg>